<svg id="Layer_1" data-name="Layer 1" xmlns="http://www.w3.org/2000/svg" viewBox="0 0 367.08 250.16">
  <defs>
    <style>
      .cls-1 {
        font-size: 122.18px;
      }

      .cls-1, .cls-2, .cls-6 {
       /* fill: #231f20;*/
       fill: #ffffff;
      }

      .cls-1, .cls-6 {
        font-family: sans-serif;
        font-weight: 700;
      }

      .cls-3 {
        fill: #fff;
      }

      .cls-4 {
        fill: #ccaf2d;
      }

      .cls-5 {
        fill: #c4a82e;
        stroke: #231f20;
        stroke-miterlimit: 10;
      }

      .cls-6 {
        font-size: 9px;
      }
    </style>
  </defs>
  <title>oraculo musica em ti (3)</title>
  <text class="cls-1" transform="translate(0 111.06) scale(0.41 1)"><tspan xml:space="preserve">MÚSICA  EM  T</tspan></text>
  <text x="-66.49" y="-189.09"></text>
  <g>
    <ellipse class="cls-2" cx="417.49" cy="230.08" rx="16.2" ry="16.08" transform="translate(118.55 457.17) rotate(-89.67)"/>
    <polygon points="338.86 56.37 344.58 109.41 356.39 109.47 362.97 56.26 338.86 56.37"/>
    <rect class="cls-3" x="413.76" y="262.23" width="6.53" height="12.31" rx="2.74" ry="2.74" transform="translate(-64.96 -191.46) rotate(0.33)"/>
    <rect class="cls-4" x="404.11" y="239.75" width="26.63" height="6.03" transform="translate(-65.1 -191.46) rotate(0.33)"/>
  </g>
  <rect class="cls-5" x="3.67" y="159.5" width="109.4" height="26" rx="12" ry="12"/>
  <text x="-66.49" y="-189.09"></text>
  <g>
    <ellipse class="cls-2" cx="86.42" cy="355.5" rx="4.07" ry="4.04" transform="translate(-344.71 196.19) rotate(-81.01)"/>
    <polygon points="16.34 169.77 15.75 183.15 18.68 183.61 22.32 170.66 16.34 169.77"/>
    <rect class="cls-3" x="84.04" y="363.44" width="1.64" height="3.09" rx="0.82" ry="0.82" transform="translate(-8.39 -197.87) rotate(8.99)"/>
    <rect class="cls-4" x="82.58" y="357.89" width="6.68" height="1.51" transform="translate(-9.36 -198.11) rotate(8.99)"/>
  </g>
  <text class="cls-6" transform="translate(39.84 171.68)">Nuno Cacho</text>
  <text x="-66.49" y="-189.09"></text>
  <path d="M415.46,295.64c.65,14.55-13.62,22.55-26.49,22.93-13.26.38-25.67-5-38.51-7.42-21.78-4.06-42.65,3.27-63,10.23-10.3,3.52-20.69,7-31.46,8.78a79.24,79.24,0,0,1-36.35-2.62c-12.07-3.64-23.49-9.09-35.52-12.85a146.32,146.32,0,0,0-33.89-6.3,150.81,150.81,0,0,0-75.36,14.66c-1.45.7-.18,2.86,1.26,2.16a148,148,0,0,1,75-14.25,145.54,145.54,0,0,1,37.41,7.81c12.45,4.35,24.47,10.09,37.38,13,22.57,5.17,44.05-1.79,65.29-9.06,10.78-3.7,21.65-7.43,32.94-9.27,13.09-2.13,25.22-.37,37.93,3s26.68,7.21,39.48,2.22c9.5-3.69,16.91-12.6,16.44-23.08-.07-1.6-2.57-1.61-2.5,0Z" transform="translate(-66.49 -189.09)"/>
  <g>
    <path class="cls-2" d="M111.23,367v.88a2.07,2.07,0,0,1-.22,1,1.5,1.5,0,0,1-.61.66,1.79,1.79,0,0,1-.93.24,2,2,0,0,1-.94-.22,1.61,1.61,0,0,1-.62-.62,1.89,1.89,0,0,1-.22-.94v-1.48a2.25,2.25,0,0,1,.21-1,1.71,1.71,0,0,1,.62-.66,1.89,1.89,0,0,1,.93-.23,1.66,1.66,0,0,1,1.41.71,2,2,0,0,1,.33.78h-.76a1.25,1.25,0,0,0-.22-.43,1,1,0,0,0-.35-.28,1,1,0,0,0-.41-.09,1,1,0,0,0-.55.15.9.9,0,0,0-.36.41,1.39,1.39,0,0,0-.13.63V368a1.14,1.14,0,0,0,.13.57.9.9,0,0,0,.37.38,1.13,1.13,0,0,0,.56.14A1.1,1.1,0,0,0,110,369a1,1,0,0,0,.36-.41,1.39,1.39,0,0,0,.13-.63v-.22h-1V367Z" transform="translate(-66.49 -189.09)"/>
    <path class="cls-2" d="M113,368.32a.82.82,0,0,0,.2.58.67.67,0,0,0,.54.21.69.69,0,0,0,.53-.19.67.67,0,0,0,.19-.52l0,.75a1,1,0,0,1-.36.45,1,1,0,0,1-.61.18,1.16,1.16,0,0,1-.92-.38,1.62,1.62,0,0,1-.32-1.08v-2.19h.7Zm1.46-2.19h.71v3.6h-.71Z" transform="translate(-66.49 -189.09)"/>
    <path class="cls-2" d="M116.25,364.69H117v.71h-.71Zm0,1.44H117v3.6h-.71Z" transform="translate(-66.49 -189.09)"/>
    <path class="cls-2" d="M117.75,366.13h1.63v.64h-1.63Zm.58,3.37a1.06,1.06,0,0,1-.2-.71v-3.71h.7v3.72a.37.37,0,0,0,0,.2.19.19,0,0,0,.16.07h.34v.67H119A.79.79,0,0,1,118.33,369.5Z" transform="translate(-66.49 -189.09)"/>
    <path class="cls-2" d="M120.5,369.5a1,1,0,0,1-.33-.83,1,1,0,0,1,.3-.8,1.34,1.34,0,0,1,.91-.27h1l0,.57h-1.07a.64.64,0,0,0-.42.12.49.49,0,0,0-.13.38.46.46,0,0,0,.18.4.91.91,0,0,0,.55.13,1.87,1.87,0,0,0,.61-.08.29.29,0,0,0,.2-.27l.07.5a.76.76,0,0,1-.23.24,1,1,0,0,1-.32.14,1.62,1.62,0,0,1-.4,0A1.49,1.49,0,0,1,120.5,369.5Zm1.88-2.05a.78.78,0,0,0-.19-.55.73.73,0,0,0-.54-.2,1.23,1.23,0,0,0-.42.07,1,1,0,0,0-.36.18l-.52-.35a1.32,1.32,0,0,1,.54-.38,1.78,1.78,0,0,1,.74-.14,1.68,1.68,0,0,1,.77.16,1,1,0,0,1,.48.45,1.49,1.49,0,0,1,.17.73v2.31h-.67Z" transform="translate(-66.49 -189.09)"/>
    <path class="cls-2" d="M124.12,366.13h.71v3.6h-.71Zm1.74.68a.81.81,0,0,0-.33-.06.64.64,0,0,0-.7.7l-.08-.69a1.42,1.42,0,0,1,.43-.5,1,1,0,0,1,.59-.18,1.23,1.23,0,0,1,.44.07,1.13,1.13,0,0,1,.35.21l-.46.62A.61.61,0,0,0,125.86,366.81Z" transform="translate(-66.49 -189.09)"/>
    <path class="cls-2" d="M127.15,366.13h.7v3.6h-.7Zm1.74.68a.81.81,0,0,0-.33-.06.68.68,0,0,0-.52.19.69.69,0,0,0-.19.51l-.07-.69a1.33,1.33,0,0,1,.43-.5,1,1,0,0,1,.58-.18,1.25,1.25,0,0,1,.45.07,1.13,1.13,0,0,1,.35.21l-.46.62A.81.81,0,0,0,128.89,366.81Z" transform="translate(-66.49 -189.09)"/>
    <path class="cls-2" d="M130.18,364.69h.7v.71h-.7Zm0,1.44h.7v3.6h-.7Z" transform="translate(-66.49 -189.09)"/>
    <path class="cls-2" d="M132.91,369.78l-.28-.06a2.66,2.66,0,0,1-.52-.19,2.26,2.26,0,0,1-.45-.31l.42-.52a2.14,2.14,0,0,0,.58.33,1.44,1.44,0,0,0,.57.11,1.18,1.18,0,0,0,.63-.13.41.41,0,0,0,.2-.39.3.3,0,0,0-.11-.26.78.78,0,0,0-.28-.11l-.48-.06H133a2.81,2.81,0,0,1-.6-.11.8.8,0,0,1-.4-.28.89.89,0,0,1-.16-.58,1.24,1.24,0,0,1,.15-.64,1,1,0,0,1,.47-.37,1.9,1.9,0,0,1,.77-.13,3.1,3.1,0,0,1,.54.05,3.37,3.37,0,0,1,.48.15,2.51,2.51,0,0,1,.45.26l-.43.52a2.16,2.16,0,0,0-.53-.26,1.52,1.52,0,0,0-.51-.09.9.9,0,0,0-.54.13.4.4,0,0,0-.18.36.25.25,0,0,0,.1.22.67.67,0,0,0,.26.1,3.52,3.52,0,0,0,.44,0h.14a3.45,3.45,0,0,1,.64.1.87.87,0,0,1,.44.3,1,1,0,0,1,.18.65,1.18,1.18,0,0,1-.16.65,1,1,0,0,1-.5.38,2.56,2.56,0,0,1-.84.13Z" transform="translate(-66.49 -189.09)"/>
    <path class="cls-2" d="M135.36,366.13H137v.64h-1.62Zm.57,3.37a1.06,1.06,0,0,1-.2-.71v-3.71h.7v3.72a.3.3,0,0,0,.06.2.16.16,0,0,0,.15.07H137v.67h-.41A.79.79,0,0,1,135.93,369.5Z" transform="translate(-66.49 -189.09)"/>
    <path class="cls-2" d="M138.1,369.5a1,1,0,0,1-.33-.83,1,1,0,0,1,.31-.8,1.32,1.32,0,0,1,.91-.27h1l.05.57H139a.61.61,0,0,0-.41.12.49.49,0,0,0-.14.38.46.46,0,0,0,.18.4.93.93,0,0,0,.55.13,1.83,1.83,0,0,0,.61-.08.29.29,0,0,0,.2-.27l.07.5a.76.76,0,0,1-.23.24,1,1,0,0,1-.32.14,1.62,1.62,0,0,1-.4,0A1.49,1.49,0,0,1,138.1,369.5Zm1.88-2.05a.78.78,0,0,0-.19-.55.73.73,0,0,0-.54-.2,1.23,1.23,0,0,0-.42.07,1.11,1.11,0,0,0-.36.18l-.52-.35a1.32,1.32,0,0,1,.54-.38,1.78,1.78,0,0,1,.74-.14,1.65,1.65,0,0,1,.77.16,1,1,0,0,1,.48.45,1.49,1.49,0,0,1,.17.73v2.31H140Z" transform="translate(-66.49 -189.09)"/>
  </g>
</svg>
